<?xml version="1.0" encoding="UTF-8" standalone="no"?>
<svg
   width="308.7612359841165"
   height="304.915625"
   viewBox="0 0 106.00782394174519 104.68749999999999"
   class="css-1j8o68f"
   version="1.1"
   xmlns="http://www.w3.org/2000/svg">
  <defs>
    <linearGradient id="kGradient" x1="0%" y1="0%" x2="100%" y2="100%">
      <stop offset="0%" style="stop-color:#ff4a3f;stop-opacity:1" />
      <stop offset="100%" style="stop-color:#ff6b63;stop-opacity:1" />
    </linearGradient>
  </defs>
  <g transform="matrix(1.2,0,0,1.2,-10,-10)">
    <path
      d="M45 15 
         C42 15, 40 17, 40 20
         L40 80
         C40 83, 42 85, 45 85
         L48 85
         L48 55
         L75 85
         C76.5 86.7, 79 87, 81 85
         L95 85
         C97 85, 98 83, 97 81
         L65 45
         L97 19
         C98 17, 97 15, 95 15
         L81 15
         C79 15, 76.5 15.3, 75 17
         L48 45
         L48 15
         Z"
      fill="url(#kGradient)"
      stroke="none"/>
  </g>
</svg>
